<?xml version="1.0" standalone="no"?>
<!DOCTYPE svg PUBLIC "-//W3C//DTD SVG 20010904//EN"
 "http://www.w3.org/TR/2001/REC-SVG-20010904/DTD/svg10.dtd">
<svg version="1.0" xmlns="http://www.w3.org/2000/svg"
 width="1026.000000pt" height="1080.000000pt" viewBox="0 0 1026.000000 1080.000000"
 preserveAspectRatio="xMidYMid meet">

<g transform="translate(0.000000,1080.000000) scale(0.100000,-0.100000)"
fill="#000000" stroke="none">
<path d="M0 5400 l0 -5400 5130 0 5130 0 0 5400 0 5400 -5130 0 -5130 0 0
-5400z m6110 4640 c412 -9 824 -24 980 -35 36 -2 112 -7 170 -11 628 -35 1573
-123 1664 -154 37 -13 92 -55 106 -81 19 -35 42 -317 44 -549 1 -124 5 -231 9
-237 13 -21 17 -118 25 -613 9 -632 3 -1070 -22 -1713 -3 -83 -11 -314 -16
-512 -6 -198 -13 -389 -15 -425 -3 -36 -9 -175 -14 -310 -12 -288 -46 -711
-59 -737 -6 -10 -16 -54 -23 -98 -6 -44 -20 -96 -31 -115 -10 -19 -18 -40 -18
-47 0 -43 -59 -52 -630 -98 -96 -8 -209 -19 -250 -24 -41 -6 -156 -15 -255
-21 -99 -6 -243 -15 -320 -20 -77 -5 -214 -12 -305 -15 -91 -3 -228 -10 -305
-15 -704 -49 -2019 -59 -3080 -25 -88 3 -187 8 -220 10 -99 7 -415 24 -670 35
-132 6 -316 18 -410 26 -93 7 -200 14 -237 14 -37 0 -89 4 -115 10 -26 5 -133
16 -238 25 -443 36 -594 52 -612 64 -20 13 -62 129 -73 200 -6 40 -15 82 -21
93 -16 30 -48 449 -54 713 -4 127 -10 248 -15 270 -5 22 -12 153 -15 290 -3
138 -8 288 -10 335 -2 47 -7 193 -11 325 -3 132 -10 355 -15 495 -13 365 -14
725 -6 1280 7 492 8 525 25 640 5 36 9 129 7 206 -1 80 6 224 16 330 10 104
18 192 19 196 1 16 56 71 89 87 20 10 81 24 136 30 55 6 132 16 170 22 68 9
384 41 595 59 58 5 242 18 410 29 168 12 334 23 370 26 257 19 673 34 1235 45
297 6 563 12 590 14 73 6 892 -3 1405 -14z"/>
</g>
</svg>
