<?xml version="1.0" standalone="no"?>
<!DOCTYPE svg PUBLIC "-//W3C//DTD SVG 20010904//EN"
 "http://www.w3.org/TR/2001/REC-SVG-20010904/DTD/svg10.dtd">
<svg version="1.0" xmlns="http://www.w3.org/2000/svg"
 width="1920.000000pt" height="1080.000000pt" viewBox="0 0 1920.000000 1080.000000"
 preserveAspectRatio="xMidYMid meet">
z
<g transform="translate(0.000000,1080.000000) scale(0.100000,-0.100000)"
fill="#000000" stroke="none">
<path d="M8810 10659 c-514 -11 -1071 -29 -1280 -40 -536 -28 -1378 -94 -1630
-129 -41 -5 -129 -17 -195 -25 -153 -20 -209 -36 -320 -93 -75 -38 -107 -63
-196 -151 -163 -164 -205 -263 -235 -561 -9 -85 -20 -263 -24 -395 -5 -132
-13 -307 -19 -390 -14 -222 -17 -1552 -4 -1873 7 -151 17 -450 23 -665 6 -216
16 -480 21 -587 5 -107 14 -296 19 -420 13 -339 46 -723 69 -805 10 -38 22
-90 26 -115 12 -82 36 -154 91 -268 83 -172 196 -281 361 -347 100 -41 202
-54 753 -100 102 -9 209 -20 239 -25 30 -6 84 -10 120 -10 36 0 143 -7 236
-14 94 -8 278 -20 410 -26 132 -6 350 -17 485 -25 828 -51 2763 -53 3465 -4
77 5 248 14 380 19 132 5 305 14 385 19 80 5 224 14 320 20 96 7 213 16 260
22 47 5 162 16 255 24 365 31 424 36 530 51 140 19 203 37 290 82 80 42 189
140 234 211 52 81 121 247 137 328 9 43 24 114 35 158 44 180 75 743 113 2055
9 316 21 615 27 664 13 102 3 1242 -13 1581 -5 116 -13 316 -17 445 -5 129
-16 305 -24 390 -31 297 -73 398 -231 555 -174 173 -282 220 -596 260 -550 70
-1552 143 -2285 165 -1012 30 -1529 34 -2215 19z"/>
</g>
</svg>
